<?xml version="1.0" standalone="no"?>
<!DOCTYPE svg PUBLIC "-//W3C//DTD SVG 20010904//EN"
 "http://www.w3.org/TR/2001/REC-SVG-20010904/DTD/svg10.dtd">
<svg version="1.0" xmlns="http://www.w3.org/2000/svg"
 width="996.000000pt" height="996.000000pt" viewBox="0 0 996.000000 996.000000"
 preserveAspectRatio="xMidYMid meet">
<metadata>
Created by potrace 1.14, written by Peter Selinger 2001-2017
</metadata>
<g transform="translate(0.000000,996.000000) scale(0.100000,-0.100000)"
fill="#000000" stroke="none">
<path d="M4953 9802 c-18 -37 -68 -134 -111 -217 -43 -82 -138 -267 -211 -410
-74 -143 -159 -309 -191 -370 -32 -60 -97 -186 -145 -280 -225 -438 -271 -527
-320 -620 -29 -55 -112 -217 -185 -360 -73 -143 -137 -264 -141 -269 -5 -6 -9
-18 -9 -28 0 -17 57 -18 1355 -15 1150 2 1356 0 1360 -12 3 -8 8 -12 10 -9 3
3 -8 29 -23 59 -16 30 -71 135 -122 234 -96 186 -186 361 -320 620 -79 152
-163 316 -330 640 -51 99 -121 234 -155 300 -34 66 -113 219 -176 340 -202
394 -237 459 -246 462 -4 1 -23 -28 -40 -65z"/>
<path d="M6695 6572 l6 -22 -651 0 c-359 1 -655 -2 -659 -5 -3 -4 -7 -597 -9
-1318 -1 -722 -4 -1317 -6 -1324 -3 -6 -14 -13 -26 -15 -13 -2 30 -21 102 -45
68 -23 175 -60 238 -82 63 -22 225 -78 360 -124 135 -47 344 -120 465 -162
121 -42 238 -83 260 -90 92 -30 512 -176 530 -184 11 -5 29 -12 40 -14 11 -3
106 -35 210 -72 105 -37 208 -73 230 -80 22 -8 137 -47 255 -88 118 -42 313
-109 433 -150 l217 -76 -84 162 c-46 89 -123 239 -171 332 -48 94 -120 233
-160 310 -40 77 -114 221 -165 320 -51 99 -112 216 -135 260 -63 119 -116 225
-113 227 2 2 -6 17 -18 33 -11 17 -44 77 -73 135 -55 108 -169 330 -296 575
-116 224 -216 417 -315 610 -51 99 -121 234 -155 300 -34 66 -118 228 -185
360 -126 246 -138 266 -125 227z"/>
<path d="M3234 6468 c-25 -51 -65 -129 -89 -173 -40 -75 -90 -173 -310 -600
-48 -93 -118 -228 -155 -300 -37 -71 -114 -220 -170 -330 -56 -110 -131 -254
-165 -320 -34 -66 -100 -192 -145 -280 -107 -208 -229 -444 -322 -625 -42 -80
-117 -226 -168 -325 -149 -289 -242 -470 -324 -627 -42 -80 -76 -151 -76 -157
0 -7 8 -7 28 0 31 13 139 50 452 159 124 43 311 108 415 145 105 36 206 71
225 76 19 6 44 14 55 19 16 8 428 152 515 180 14 5 124 43 245 85 121 42 324
113 450 157 127 44 255 89 285 99 30 11 62 21 70 24 8 2 136 46 283 97 l268
93 -5 36 c-3 20 -6 609 -7 1310 0 701 -3 1289 -6 1306 l-5 32 -640 1 c-352 0
-644 3 -649 6 -5 2 -29 -37 -55 -88z"/>
<path d="M5064 3981 c3 -5 16 -11 28 -14 22 -6 22 -5 4 8 -22 17 -40 20 -32 6z"/>
<path d="M2046 2461 c-14 -8 -27 -24 -27 -33 -5 -63 -1 -76 25 -94 21 -13 64
-16 300 -15 l276 0 0 -760 0 -761 29 -29 c19 -19 40 -29 59 -29 33 0 81 39 83
67 1 10 2 353 3 763 l1 745 270 2 c291 3 321 7 331 52 3 14 7 32 9 38 3 7 -6
25 -19 40 l-24 28 -645 1 c-572 1 -648 -1 -671 -15z"/>
<path d="M3798 1965 c-2 -2 -15 -6 -28 -9 -79 -15 -175 -71 -233 -135 l-35
-39 -4 68 c-4 77 -20 100 -71 104 -42 4 -83 -17 -91 -46 -3 -13 -6 -270 -6
-571 l0 -548 25 -24 c33 -34 87 -34 120 0 l25 24 0 374 c0 321 2 382 17 426
27 86 104 160 207 198 29 12 82 17 184 18 79 1 147 6 153 12 5 5 12 26 16 47
7 45 -12 69 -72 89 -37 13 -197 22 -207 12z"/>
<path d="M4685 1955 c-181 -35 -340 -155 -423 -320 -88 -174 -87 -411 2 -579
50 -95 52 -97 123 -165 122 -117 264 -167 443 -158 158 8 287 67 387 176 l43
46 0 -81 c0 -98 14 -123 75 -130 32 -4 46 0 69 18 l28 24 -1 324 c-2 362 -7
404 -66 521 -19 38 -40 77 -47 86 -20 25 -111 116 -136 136 -39 30 -135 75
-197 93 -74 20 -220 25 -300 9z m267 -165 c86 -26 168 -87 221 -163 53 -76 74
-130 85 -223 20 -177 -54 -348 -192 -444 -139 -95 -350 -97 -496 -5 -91 58
-179 190 -199 297 -12 67 -6 174 12 239 31 106 128 223 228 275 89 46 237 56
341 24z"/>
<path d="M5714 1950 c-26 -10 -48 -62 -40 -92 3 -13 54 -84 113 -160 59 -75
144 -182 189 -239 l81 -103 -116 -146 c-64 -80 -118 -147 -121 -150 -3 -3 -40
-49 -83 -103 -92 -115 -104 -151 -64 -191 31 -31 75 -34 105 -8 11 9 66 76
121 147 56 72 107 137 114 145 7 8 43 54 81 102 38 48 72 85 77 82 5 -2 44
-51 88 -107 194 -249 285 -363 300 -375 19 -15 85 -9 104 10 34 33 25 85 -23
141 -10 12 -73 92 -140 177 -66 85 -126 162 -133 170 -61 76 -78 102 -74 115
5 12 116 152 317 400 32 39 60 80 63 93 8 34 -10 78 -38 90 -51 23 -95 -2
-155 -88 -13 -19 -27 -37 -30 -40 -8 -7 -71 -86 -216 -272 l-62 -78 -55 72
c-147 193 -300 384 -316 396 -25 17 -61 22 -87 12z"/>
<path d="M6846 1927 c-22 -21 -27 -34 -23 -55 3 -15 53 -124 110 -242 57 -118
129 -267 160 -330 30 -63 94 -196 142 -295 48 -99 88 -185 88 -190 0 -6 -50
-122 -112 -259 -127 -280 -131 -298 -69 -331 28 -15 43 -17 64 -10 32 12 44
34 155 280 45 99 93 205 106 235 14 30 58 127 98 215 40 88 89 196 110 240 20
44 86 190 147 325 61 135 114 250 118 255 4 6 17 35 28 66 26 70 15 97 -45
118 -61 22 -79 5 -137 -125 -27 -60 -61 -136 -76 -169 -15 -33 -38 -82 -50
-110 -12 -27 -39 -86 -60 -130 -20 -44 -70 -153 -110 -242 -40 -90 -76 -163
-79 -163 -4 0 -16 19 -26 43 -18 42 -97 207 -192 407 -28 58 -66 139 -86 180
-148 317 -151 322 -203 318 -16 -1 -42 -15 -58 -31z"/>
</g>
</svg>
